<svg id="Calque_1" data-name="Calque 1" xmlns="http://www.w3.org/2000/svg" xmlns:xlink="http://www.w3.org/1999/xlink" viewBox="0 0 1300 1000"><defs><style>.cls-1{fill:none;}.cls-2{font-size:278.71px;fill:#ff1d25;font-family:Carbon-RegularItalic, Carbon;font-style:italic;letter-spacing:-0.07em;}.cls-3{clip-path:url(#clip-path);}.cls-4{fill:url(#Dégradé_sans_nom_10);}</style><clipPath id="clip-path"><path class="cls-1" d="M82.6,445.1V324.4c0-34.7,18-55.2,52-55.2s52,20.5,52,55.2v23.7H153.2v-26c0-14.7-7-20.8-17.6-20.8s-17.7,6.1-17.7,20.8V447.6c0,14.8,7.1,20.6,17.7,20.6s17.6-5.8,17.6-20.6V413.3h33.4v31.8c0,34.6-17.9,55.2-52,55.2S82.6,479.7,82.6,445.1Zm123.3-1.3V325.7c0-36,18.9-56.5,53.6-56.5s53.6,20.5,53.6,56.5V443.8c0,35.9-19,56.5-53.6,56.5S205.9,479.7,205.9,443.8Zm71.9,2.2V323.4c0-16-7.1-22.1-18.3-22.1s-18.3,6.1-18.3,22.1V446c0,16.1,7,22.2,18.3,22.2S277.8,462.1,277.8,446Zm49.1-173.6h35.6l23.1,174.3h.6l23.1-174.3h32.5L407.7,497.1H360.9Zm131.9,0h35.3V497.1H458.8Zm61.6,0h53.9c35.3,0,52.6,19.6,52.6,55.5V441.5c0,36-17.3,55.6-52.6,55.6H520.4ZM573.7,465c11.2,0,17.9-5.8,17.9-21.9V326.3c0-16-6.7-21.8-17.9-21.8h-18V465Zm71.8-96.3h70.6v32.1H645.5Zm115.2-43H723.8V300.6c29.9,0,40.5-6.4,48.5-28.2H796V497.1H760.7Zm50.1,118.1v-4.2h33.4V446c0,16.1,7,22.2,18.3,22.2s19.6-6.1,19.6-27.6v-43h-.7c-6.1,12.8-16.4,19.5-32.1,19.5-26,0-39.1-18.3-39.1-51.3V325.7c0-36,18.9-56.5,53.6-56.5s53.6,20.5,53.6,56.5V441.9c0,37.8-17.4,58.4-54,58.4C828.8,500.3,810.8,479.7,810.8,443.8Zm71.3-80.9V323.1c0-14.8-6.1-21.8-18.3-21.8s-18.3,7-18.3,21.8v39.8c0,15.1,6.1,22.1,18.3,22.1S882.1,378,882.1,362.9Z"/></clipPath><linearGradient id="Dégradé_sans_nom_10" x1="73.57" y1="379.85" x2="925.03" y2="379.85" gradientUnits="userSpaceOnUse"><stop offset="0" stop-color="#39b54a"/><stop offset="1" stop-color="#006837"/></linearGradient></defs><text class="cls-2" transform="translate(38 669.9)">TRACKER</text><g class="cls-3"><rect class="cls-4" x="73.6" y="255.1" width="1234" height="249.45"/></g></svg>